<?xml version="1.0" encoding="UTF-8"?><svg id="Calque_1" xmlns="http://www.w3.org/2000/svg" viewBox="0 0 1641.55 250"><g><circle cx="125" cy="125" r="125"/><g><path d="m64.25,171.88v-93.75h21.12v76.5l-6-4.25,58-72.25h22.62l-76.62,93.75h-19.12Z" style="fill:#fff;"/><polygon points="192 171.88 158.23 117.76 190.62 78.12 168 78.12 91.28 171.88 114 171.88 144.71 134.3 167.75 171.88 192 171.88" style="fill:#fff; opacity:.8;"/></g></g><g><polygon points="408.21 171.95 374.33 117.02 406.94 76.99 381.62 76.99 331.86 139.75 331.86 76.99 308.06 76.99 308.06 171.95 329.58 171.95 359.24 135.54 381.11 171.95 408.21 171.95"/><path d="m415.3,74.46h23.42v97.49h-23.42v-97.49Z"/><path d="m539.13,171.95l-4.69-24.56v-47.61h-23.42v34.82c0,4.14-.74,7.72-2.22,10.76-1.48,3.04-3.57,5.36-6.27,6.96-2.7,1.6-5.99,2.41-9.88,2.41-5.23,0-9.24-1.56-12.03-4.68-2.79-3.12-4.18-7.6-4.18-13.42v-36.85h-23.55v40.26c0,6.92,1.24,12.92,3.74,17.98,2.49,5.06,6.12,8.97,10.89,11.71,4.77,2.74,10.49,4.12,17.16,4.12,5.74,0,10.99-1.35,15.76-4.05,4.77-2.7,8.74-6.69,11.9-11.96.25-.42.49-.87.73-1.31l2.5,15.42h23.55Z"/><path d="m543.68,117.25v-10.26l14.94-5.44,10-21.02h13.55v19.25h31.15v17.47h-31.15v23.8c0,5.4,1.1,9.18,3.29,11.33,2.19,2.15,6.12,3.23,11.78,3.23,3.54,0,6.71-.32,9.5-.95s5.4-1.5,7.85-2.6v17.85c-2.53,1.01-5.85,1.94-9.94,2.79-4.1.84-8.34,1.27-12.72,1.27-7.68,0-13.99-1.22-18.93-3.67-4.94-2.45-8.57-5.89-10.89-10.32-2.32-4.43-3.48-9.64-3.48-15.64v-27.1h-14.94Z"/><path d="m707.4,142.07c-.68,6.25-3.02,11.77-7.03,16.59-4.01,4.81-9.16,8.57-15.45,11.27-6.29,2.7-13.36,4.05-21.21,4.05-8.69,0-16.38-1.6-23.04-4.81-6.67-3.21-11.86-7.68-15.57-13.42-3.72-5.74-5.57-12.36-5.57-19.88s1.86-14.12,5.57-19.82c3.71-5.7,8.9-10.17,15.57-13.42,6.67-3.25,14.35-4.87,23.04-4.87,7.85,0,14.92,1.35,21.21,4.05,6.29,2.7,11.44,6.44,15.45,11.21,4.01,4.77,6.35,10.36,7.03,16.78h-23.42c-.93-4.64-3.23-8.21-6.9-10.7-3.67-2.49-8.12-3.74-13.36-3.74-4.14,0-7.75.8-10.83,2.41-3.08,1.6-5.47,3.95-7.15,7.03-1.69,3.08-2.53,6.77-2.53,11.08s.84,7.98,2.53,11.02c1.69,3.04,4.07,5.36,7.15,6.96,3.08,1.6,6.69,2.41,10.83,2.41,5.32,0,9.79-1.29,13.42-3.86,3.63-2.57,5.91-6.01,6.84-10.32h23.42Z"/><path d="m801.34,131.69v40.26h-23.55v-36.72c0-5.99-1.45-10.53-4.37-13.61-2.91-3.08-7.15-4.62-12.72-4.62-3.88,0-7.24.82-10.07,2.47-2.82,1.64-5.02,3.97-6.58,6.96-1.56,3-2.34,6.56-2.34,10.7v34.82h-23.43v-97.49h23.43v37.62c3-4.38,6.66-7.79,10.95-10.21,4.85-2.74,10.23-4.12,16.14-4.12,6.84,0,12.68,1.4,17.54,4.18,4.85,2.79,8.57,6.69,11.14,11.71,2.58,5.03,3.86,11.04,3.86,18.05Z"/><polygon points="900.99 171.95 873.97 128.82 899.09 99.78 873.89 99.78 838.95 142.74 838.95 74.46 815.52 74.46 815.52 171.95 836.67 171.95 859 146.13 874.27 171.95 900.99 171.95"/><path d="m919.6,92.18c-4.14,0-7.51-1.08-10.13-3.23-2.62-2.15-3.92-5-3.92-8.55s1.31-6.5,3.92-8.61c2.62-2.11,5.99-3.17,10.13-3.17s7.6,1.06,10.13,3.17c2.53,2.11,3.8,4.98,3.8,8.61s-1.27,6.39-3.8,8.55c-2.53,2.15-5.91,3.23-10.13,3.23Zm-11.78,6.58l11.65,2.41,11.77-2.41v73.18h-23.42v-73.18Z"/><path d="m1030.77,142.07c-.68,6.25-3.02,11.77-7.03,16.59-4.01,4.81-9.16,8.57-15.45,11.27-6.29,2.7-13.36,4.05-21.21,4.05-8.69,0-16.38-1.6-23.04-4.81-6.67-3.21-11.86-7.68-15.57-13.42-3.72-5.74-5.57-12.36-5.57-19.88s1.86-14.12,5.57-19.82c3.71-5.7,8.9-10.17,15.57-13.42,6.67-3.25,14.35-4.87,23.04-4.87,7.85,0,14.92,1.35,21.21,4.05,6.29,2.7,11.44,6.44,15.45,11.21,4.01,4.77,6.35,10.36,7.03,16.78h-23.42c-.93-4.64-3.23-8.21-6.9-10.7-3.67-2.49-8.12-3.74-13.36-3.74-4.14,0-7.75.8-10.83,2.41-3.08,1.6-5.47,3.95-7.15,7.03-1.69,3.08-2.53,6.77-2.53,11.08s.84,7.98,2.53,11.02c1.69,3.04,4.07,5.36,7.15,6.96,3.08,1.6,6.69,2.41,10.83,2.41,5.32,0,9.79-1.29,13.42-3.86,3.63-2.57,5.91-6.01,6.84-10.32h23.42Z"/><polygon points="1127.12 171.95 1100.11 128.82 1125.22 99.78 1100.03 99.78 1065.08 142.74 1065.08 74.46 1041.66 74.46 1041.66 171.95 1062.8 171.95 1085.13 146.13 1100.4 171.95 1127.12 171.95"/><path d="m1302.99,131.69v40.26h-23.55v-36.72c0-5.99-1.31-10.53-3.93-13.61-2.62-3.08-6.46-4.62-11.52-4.62-3.54,0-6.61.82-9.18,2.47-2.57,1.64-4.56,3.97-5.95,6.96-1.39,3-2.09,6.56-2.09,10.7v34.82h-23.55v-36.72c0-5.99-1.31-10.53-3.93-13.61-2.61-3.08-6.45-4.62-11.52-4.62-3.54,0-6.6.82-9.18,2.47-2.57,1.64-4.55,3.97-5.95,6.96-1.39,3-2.09,6.56-2.09,10.7v34.82h-23.55v-47.61l-4.55-24.56h23.42l2.54,15.29c.22-.42.45-.84.69-1.24,3.08-5.23,6.92-9.22,11.52-11.96,4.6-2.74,9.69-4.12,15.26-4.12,6.58,0,12.17,1.4,16.77,4.18,4.6,2.79,8.11,6.69,10.51,11.71.35.73.67,1.49.97,2.26.36-.71.73-1.4,1.12-2.07,3.04-5.23,6.88-9.22,11.52-11.96,4.64-2.74,9.71-4.12,15.2-4.12,6.58,0,12.19,1.4,16.84,4.18,4.64,2.79,8.16,6.69,10.57,11.71,2.41,5.03,3.61,11.04,3.61,18.05Z"/><path d="m1364.9,156.5c-5.91,0-10.91-.88-15-2.66-4.1-1.77-7.22-4.34-9.37-7.72-.65-1.03-1.21-2.13-1.66-3.29h58.7c0-9.12-1.65-17.05-4.94-23.81-3.29-6.75-7.98-11.98-14.05-15.7-6.08-3.71-13.34-5.57-21.78-5.57s-15.68,1.61-22.22,4.81c-6.55,3.21-11.67,7.64-15.39,13.3-3.71,5.65-5.57,12.24-5.57,19.75s1.94,14.39,5.83,20.13c3.88,5.74,9.22,10.22,16.01,13.42,6.8,3.21,14.5,4.81,23.11,4.81,7.26,0,14.03-.93,20.32-2.78,6.29-1.86,11.88-4.47,16.78-7.85v-15.32c-4.31,2.7-9.16,4.79-14.56,6.27-5.4,1.47-10.81,2.21-16.21,2.21Zm-25.13-32.66c1.64-2.87,3.94-5.11,6.9-6.72,2.95-1.6,6.46-2.4,10.51-2.4,3.71,0,6.92.74,9.62,2.21,2.7,1.48,4.87,3.59,6.52,6.34.85,1.42,1.52,3,1.99,4.74h-37.26c.4-1.49.98-2.87,1.72-4.17Z"/><path d="m1502.53,74.46h-24.44l-4.7,40.96c-3.55-5.5-7.97-9.81-13.27-12.92-5.41-3.16-11.48-4.75-18.24-4.75-7.09,0-13.31,1.61-18.67,4.81-5.36,3.21-9.56,7.66-12.6,13.36-3.04,5.7-4.56,12.35-4.56,19.94s1.52,14.25,4.56,19.95c3.04,5.69,7.24,10.15,12.6,13.35,5.36,3.21,11.58,4.81,18.67,4.81s12.83-1.58,18.24-4.74c5.36-3.15,9.8-7.53,13.34-13.17l1.85,15.89h24.31l-4.31-37.86,7.22-59.63Zm-43.24,78.81c-3.33,1.73-6.86,2.6-10.57,2.6s-6.99-.87-9.81-2.6c-2.83-1.73-5.05-4.09-6.65-7.09-1.6-2.99-2.41-6.43-2.41-10.32s.81-7.32,2.41-10.32c1.6-2.99,3.82-5.35,6.65-7.09,2.82-1.73,6.09-2.59,9.81-2.59s7.24.86,10.57,2.59c3.34,1.74,6.27,4.1,8.8,7.09,2.53,3,4.43,6.44,5.7,10.32-1.27,3.89-3.17,7.33-5.7,10.32-2.53,3-5.46,5.36-8.8,7.09Z"/><path d="m1524.69,92.18c-4.14,0-7.51-1.08-10.13-3.23-2.62-2.15-3.93-5-3.93-8.55s1.31-6.5,3.93-8.61c2.62-2.11,5.99-3.17,10.13-3.17s7.6,1.06,10.13,3.17c2.53,2.11,3.8,4.98,3.8,8.61s-1.27,6.39-3.8,8.55c-2.53,2.15-5.91,3.23-10.13,3.23Zm-11.78,6.58l11.65,2.41,11.78-2.41v73.18h-23.42v-73.18Z"/><path d="m1641.55,99.78h-24.43l-1.83,15.18c-3.5-5.28-7.84-9.44-12.99-12.46-5.4-3.16-11.48-4.75-18.23-4.75-7.09,0-13.32,1.61-18.68,4.81-5.36,3.21-9.56,7.66-12.59,13.36-3.04,5.7-4.56,12.35-4.56,19.94s1.52,14.25,4.56,19.95c3.03,5.69,7.23,10.15,12.59,13.35,5.36,3.21,11.59,4.81,18.68,4.81s12.83-1.58,18.23-4.74c5.17-3.04,9.5-7.23,12.97-12.59l1.85,15.31h24.43l-4.43-36.09,4.43-36.08Zm-40.07,53.49c-3.34,1.73-6.86,2.6-10.57,2.6s-6.99-.87-9.82-2.6c-2.82-1.73-5.04-4.09-6.64-7.09-1.61-2.99-2.41-6.43-2.41-10.32s.8-7.32,2.41-10.32c1.6-2.99,3.82-5.35,6.64-7.09,2.83-1.73,6.1-2.59,9.82-2.59s7.23.86,10.57,2.59c3.33,1.74,6.27,4.1,8.8,7.09,2.53,3,4.43,6.44,5.7,10.32-1.27,3.89-3.17,7.33-5.7,10.32-2.53,3-5.47,5.36-8.8,7.09Z"/></g></svg>