<svg xmlns="http://www.w3.org/2000/svg" viewBox="0 0 1822 320">
  <path fill="#fff" fill-rule="evenodd"
    d="M149.656 262.565v-22.174H20v-33.09h123.324L20 138.081V93.779l146.713 82.348 146.713-82.348v44.302l-123.324 69.22h123.324v33.09H183.77v22.174h129.656v33.121H20v-33.121h129.656zM20 24.314l146.713 82.348 146.713-82.348v44.302l-146.713 82.347L20 68.616V24.314z" />
  <path fill="#fff" fill-rule="evenodd"
    d="M1330.69 246.816V79.184h37.597l16.764 119.977h.479l16.763-119.977h37.597v167.632h-24.905V119.895h-.479l-19.158 126.921h-22.032l-19.158-126.921h-.479v126.921h-22.989zm128.837 0V79.184h71.843v23.947h-45.5v44.303h36.16v23.948h-36.16v51.487h45.5v23.947h-71.843zm86.93 0V79.184h40.232q19.636 0 29.455 10.537 9.818 10.537 9.818 30.892v84.774q0 20.355-9.818 30.892-9.819 10.537-29.455 10.537h-40.232zm26.342-23.947h13.411q6.465 0 9.938-3.832 3.472-3.831 3.472-12.453v-87.168q0-8.622-3.472-12.453-3.473-3.832-9.938-3.832h-13.411v119.738zm70.884 23.947V79.184h26.343v167.632h-26.343zm39.035 0l27.3-167.632h35.682l27.3 167.632h-26.342l-4.79-33.287v.479h-29.934l-4.79 32.808h-24.426zm32.329-55.558h23.708l-11.734-82.858h-.479l-11.495 82.858zM400.09 246.816V79.184h26.342v70.645l33.527-70.645h26.342l-31.371 61.545 31.85 106.087h-27.54L436.969 172.1l-10.537 21.313v53.403H400.09zm99.143 0V79.184h26.342v143.685h43.345v23.947h-69.687zm120.695 2.395q-19.158 0-29.216-10.896t-10.058-31.252V79.184h26.342v129.795q0 8.621 3.473 12.453 3.472 3.831 9.938 3.831 6.466 0 9.938-3.831 3.473-3.832 3.473-12.453V79.184h25.384v127.879q0 20.356-10.058 31.252-10.058 10.896-29.216 10.896zm78.548-2.395V103.131h-27.54V79.184h81.422v23.947h-27.54v143.685h-26.342zm102.735 2.395q-18.919 0-28.857-10.776-9.938-10.777-9.938-30.414v-90.042q0-19.637 9.938-30.414 9.938-10.776 28.857-10.776 18.918 0 28.856 10.776 9.939 10.777 9.939 30.414V135.7H815.1v-19.398q0-15.565-13.171-15.565t-13.171 15.565v93.635q0 15.326 13.171 15.326t13.171-15.326v-25.624h24.906v23.708q0 19.637-9.939 30.414-9.938 10.776-28.856 10.776zm54.6-2.395V79.184h26.342v68.25h28.258v-68.25h26.342v167.632h-26.342v-75.434h-28.258v75.434h-26.342zm100.579 0V79.184h26.343v70.645l33.526-70.645h26.342l-31.371 61.545 31.85 106.087h-27.539L993.269 172.1l-10.536 21.313v53.403H956.39zm99.143 0V79.184h26.342v167.632h-26.342zm83.098 2.395q-18.919 0-28.857-10.776-9.938-10.777-9.938-30.414v-90.042q0-19.637 9.938-30.414 9.938-10.776 28.857-10.776 18.918 0 28.857 10.776 9.938 10.777 9.938 30.414V135.7h-24.906v-19.398q0-15.565-13.171-15.565t-13.171 15.565v93.635q0 15.326 13.171 15.326t13.171-15.326v-25.624h24.906v23.708q0 19.637-9.938 30.414-9.939 10.776-28.857 10.776zm54.6-2.395V79.184h26.342v70.645l33.527-70.645h26.342l-31.371 61.545 31.85 106.087h-27.54L1230.11 172.1l-10.537 21.313v53.403h-26.342z" />
</svg>
