<?xml version="1.0" standalone="no"?>
<!DOCTYPE svg PUBLIC "-//W3C//DTD SVG 20010904//EN"
 "http://www.w3.org/TR/2001/REC-SVG-20010904/DTD/svg10.dtd">
<svg version="1.0" xmlns="http://www.w3.org/2000/svg"
 width="700.000000pt" height="700.000000pt" viewBox="0 0 700.000000 700.000000"
 preserveAspectRatio="xMidYMid meet">
<metadata>
Created by potrace 1.14, written by Peter Selinger 2001-2017
</metadata>
<g transform="translate(0.000000,700.000000) scale(0.100000,-0.100000)"
fill="#000000" stroke="none">
<path d="M3295 6990 c-1060 -67 -2001 -584 -2630 -1445 -299 -409 -513 -913
-604 -1415 -75 -415 -73 -879 5 -1285 177 -923 713 -1730 1494 -2252 380 -254
795 -427 1245 -518 250 -50 432 -68 695 -68 401 1 724 51 1090 173 536 177
984 453 1381 849 500 500 830 1124 963 1816 80 416 80 895 0 1310 -202 1050
-862 1939 -1814 2443 -302 160 -673 286 -1024 348 -223 39 -573 58 -801 44z
m-903 -3075 l3 -905 725 905 725 904 318 1 c207 0 318 -3 315 -10 -1 -5 -484
-599 -1073 -1320 l-1070 -1310 -270 3 -270 2 -3 1305 c-1 718 0 1311 3 1318 3
9 73 12 300 12 l295 0 2 -905z m2948 900 c0 -3 -203 -253 -451 -556 -281 -345
-448 -557 -445 -566 3 -8 215 -350 471 -760 256 -410 465 -747 465 -749 0 -2
-153 -4 -340 -4 l-340 0 -43 68 c-24 37 -169 273 -322 524 -154 252 -282 458
-285 457 -3 0 -196 -235 -430 -522 l-425 -522 -319 -3 c-282 -2 -318 -1 -312
13 3 8 486 602 1073 1320 l1068 1305 318 0 c174 0 317 -2 317 -5z"/>
</g>
</svg>
